<?xml version="1.0" encoding="UTF-8"?>
<svg width="38.79px" height="18.25px" viewBox="0 0 38.79 18.25" version="1.1" xmlns="http://www.w3.org/2000/svg" xmlns:xlink="http://www.w3.org/1999/xlink">
    <title></title>
    <g id="6月需求" stroke="none" stroke-width="1" fill="none" fill-rule="evenodd">
        <g id="fvip--hover效果" transform="translate(-862.570000, -17.360000)" fill="#2DB362" fill-rule="nonzero">
            <g id="编组" transform="translate(637.000000, 11.000000)">
                <g id="编组-3" transform="translate(225.570000, 6.360000)">
                    <path d="M9.13,0 L9.13,7.14 L10.22,7.14 L10.22,3.94 L13.77,3.94 L13.77,3.01 L10.22,3.01 L10.22,0.93 L13.98,0.93 L13.98,0 L9.13,0 Z M14.29,0 L16.85,7.14 L18.17,7.14 L20.73,0 L19.55,0 L17.53,5.92 L17.5,5.92 L15.47,0 L14.29,0 Z M21.5,0 L21.5,7.14 L22.58,7.14 L22.58,0 L21.5,0 Z M24,0 L24,7.14 L25.09,7.14 L25.09,4.36 L26.94,4.36 C28.65,4.36 29.51,3.63 29.51,2.17 C29.51,0.72 28.66,0 26.96,0 L24,0 Z M25.09,0.93 L26.87,0.93 C27.4,0.93 27.79,1.03 28.04,1.23 C28.29,1.41 28.42,1.73 28.42,2.17 C28.42,2.61 28.29,2.93 28.05,3.13 C27.8,3.33 27.41,3.43 26.87,3.43 L25.09,3.43 L25.09,0.93 Z M0.66,9.08 L0.19,9.79 C0.74,9.97 1.28,10.22 1.81,10.55 L2.32,9.78 C1.82,9.5 1.26,9.27 0.66,9.08 Z M3.72,8.9 C3.5,9.58 3.07,10.16 2.44,10.62 L3,11.36 C3.36,11.08 3.68,10.76 3.94,10.41 L5.03,10.41 C4.9,10.87 4.67,11.25 4.35,11.54 C3.93,11.9 3.25,12.17 2.31,12.37 L2.66,13.22 C3.8,12.94 4.61,12.57 5.08,12.1 C5.19,11.98 5.29,11.86 5.39,11.72 C6.02,12.46 7.04,12.98 8.45,13.27 L8.79,12.44 C7.31,12.17 6.31,11.68 5.78,10.97 C5.84,10.79 5.89,10.61 5.93,10.41 L7.39,10.41 C7.29,10.75 7.16,11.06 7.01,11.33 L7.92,11.6 C8.1,11.12 8.25,10.63 8.36,10.15 L8.36,9.58 L4.44,9.58 C4.52,9.4 4.59,9.22 4.65,9.02 L3.72,8.9 Z M7.7,13.37 L1.14,13.37 L1.14,16.46 L2.09,16.46 L2.09,14.25 L6.74,14.25 L6.74,16.36 L7.7,16.36 L7.7,13.37 Z M4.02,14.52 C3.94,15.5 3.68,16.18 3.24,16.58 C2.74,16.99 1.71,17.23 0.14,17.31 L0.51,18.17 C2.38,18.01 3.56,17.67 4.06,17.14 C4.52,16.73 4.83,15.88 4.97,14.6 L4.02,14.52 Z M1.93,10.99 C1.41,11.47 0.76,11.91 0,12.33 L0.63,13.06 C1.37,12.62 1.99,12.15 2.49,11.64 L1.93,10.99 Z M5.16,16.29 L4.68,17.01 C5.88,17.31 7.04,17.72 8.18,18.25 L8.7,17.46 C7.63,17 6.45,16.61 5.16,16.29 Z M10.66,9.1 L10.02,9.71 C10.78,10.27 11.38,10.78 11.8,11.26 L12.45,10.62 C11.96,10.12 11.36,9.61 10.66,9.1 Z M10.48,11.55 L9.84,12.16 C10.56,12.7 11.11,13.2 11.5,13.66 L12.14,13.01 C11.69,12.53 11.14,12.04 10.48,11.55 Z M11.44,14.28 C11.02,15.46 10.51,16.62 9.93,17.75 L10.82,18.14 C11.35,17.04 11.83,15.86 12.26,14.6 L11.44,14.28 Z M14.22,10.89 L14.22,14.54 L15.86,14.54 L15.86,16.98 C15.86,17.22 15.76,17.34 15.56,17.34 C15.32,17.34 15.08,17.32 14.83,17.28 L15.03,18.14 L15.87,18.14 C16.46,18.14 16.76,17.82 16.76,17.2 L16.76,14.54 L18.36,14.54 L18.36,10.89 L16.49,10.89 C16.58,10.64 16.65,10.38 16.71,10.12 L18.86,10.12 L18.86,9.28 L12.75,9.28 L12.75,12.74 C12.72,14.79 12.4,16.39 11.8,17.54 L12.52,18.18 C13.24,16.81 13.62,15 13.66,12.74 L13.66,10.12 L15.81,10.12 C15.75,10.38 15.68,10.63 15.59,10.89 L14.22,10.89 Z M17.53,13.79 L15.05,13.79 L15.05,13.06 L17.53,13.06 L17.53,13.79 Z M15.05,12.37 L15.05,11.62 L17.53,11.62 L17.53,12.37 L15.05,12.37 Z M14.38,15.15 C14.19,15.87 13.87,16.55 13.42,17.17 L14.18,17.65 C14.63,17 14.98,16.23 15.22,15.33 L14.38,15.15 Z M18.02,15.1 L17.23,15.37 C17.59,16.03 17.92,16.78 18.22,17.64 L19.02,17.29 C18.74,16.51 18.4,15.78 18.02,15.1 Z M24.09,11.82 L25.06,11.82 L25.06,11.04 L24.09,11.04 L24.09,10.27 C24.55,10.11 24.94,9.94 25.27,9.78 L24.74,9.07 C24.25,9.35 23.75,9.56 23.23,9.68 L23.23,13.42 L25.48,13.42 L25.48,14.16 L23.18,14.16 L23.18,15.01 L23.64,15.01 C23.99,15.64 24.48,16.19 25.1,16.66 C24.38,16.94 23.54,17.16 22.57,17.34 L23.04,18.19 C24.2,17.94 25.19,17.62 26.01,17.23 C26.77,17.63 27.67,17.95 28.73,18.18 L29.08,17.29 C28.3,17.13 27.6,16.92 26.99,16.67 C27.71,16.18 28.23,15.61 28.55,14.96 L28.55,14.16 L26.37,14.16 L26.37,13.42 L28.6,13.42 L28.6,9.39 L26.78,9.39 L26.78,10.19 L27.75,10.19 L27.75,11.04 L26.82,11.04 L26.82,11.82 L27.75,11.82 L27.75,12.61 L26.37,12.61 L26.37,9 L25.48,9 L25.48,12.61 L24.09,12.61 L24.09,11.82 Z M24.65,15.01 L27.52,15.01 C27.18,15.47 26.69,15.87 26.07,16.21 C25.48,15.87 25.01,15.47 24.65,15.01 Z M21.09,18.08 C21.7,18.08 22.01,17.75 22.01,17.1 L22.01,14.34 C22.32,14.2 22.62,14.06 22.92,13.91 L22.92,12.98 C22.62,13.14 22.32,13.29 22.01,13.43 L22.01,11.69 L22.84,11.69 L22.84,10.78 L22.01,10.78 L22.01,8.99 L21.09,8.99 L21.09,10.78 L20.06,10.78 L20.06,11.69 L21.09,11.69 L21.09,13.8 C20.69,13.94 20.28,14.07 19.86,14.17 L20.08,15.07 C20.42,14.96 20.75,14.84 21.09,14.72 L21.09,16.86 C21.09,17.12 20.98,17.25 20.77,17.25 C20.51,17.25 20.24,17.22 19.95,17.18 L20.15,18.08 L21.09,18.08 Z M30.66,9.65 L30.66,10.51 L33.95,10.51 L33.95,11.2 L30.17,11.2 L30.17,13.14 L31.09,13.14 L31.09,12.02 L33.66,12.02 C33.16,12.44 32.63,12.82 32.06,13.15 C31.91,13.23 31.76,13.29 31.62,13.32 L31.8,14.02 C32.54,14 33.2,13.98 33.8,13.96 C33.06,14.37 32.35,14.67 31.67,14.86 C31.41,14.86 31.14,14.85 30.86,14.83 L31.05,15.68 C31.97,15.66 32.96,15.62 34.02,15.57 L34.02,17.05 C34.02,17.24 33.91,17.34 33.71,17.34 C33.45,17.34 33.19,17.32 32.92,17.28 L33.11,18.16 L34.02,18.16 C34.64,18.16 34.96,17.86 34.96,17.27 L34.96,15.52 C35.64,15.48 36.34,15.44 37.08,15.4 C37.26,15.62 37.42,15.85 37.57,16.07 L38.29,15.56 C37.9,15.03 37.35,14.41 36.65,13.71 L35.96,14.14 C36.16,14.34 36.35,14.55 36.54,14.76 C35.47,14.82 34.38,14.88 33.27,14.92 C34.51,14.45 35.65,13.83 36.69,13.06 L35.93,12.55 C35.58,12.81 35.24,13.05 34.9,13.28 C34.4,13.31 33.76,13.34 32.98,13.36 C33.56,13.04 34.12,12.66 34.67,12.24 L34.23,12.02 L37.77,12.02 L37.77,13.15 L38.69,13.15 L38.69,11.2 L34.91,11.2 L34.91,10.51 L38.2,10.51 L38.2,9.65 L34.91,9.65 L34.91,8.94 L33.95,8.94 L33.95,9.65 L30.66,9.65 Z M35.96,15.91 L35.49,16.61 C36.45,16.95 37.39,17.42 38.31,18.02 L38.79,17.26 C37.94,16.73 37,16.28 35.96,15.91 Z M32.69,15.89 C31.99,16.41 31.1,16.83 30,17.15 L30.39,17.99 C31.52,17.6 32.47,17.11 33.25,16.52 L32.69,15.89 Z" id="形状结合"></path>
                </g>
            </g>
        </g>
    </g>
</svg>